<svg height="24" preserveAspectRatio="xMinYMin" viewBox="-2 -2 24 24" width="24" xmlns="http://www.w3.org/2000/svg"><path d="m10.549.26a1.563 1.563 0 0 0 -1.756.02l-7.865 5.48c-.42.292-.67.77-.67 1.282v5.903c0 .525.264 1.014.702 1.303l7.994 5.285a1.562 1.562 0 0 0 1.723 0l8.153-5.386c.438-.29.701-.78.701-1.304v-5.8c0-.524-.263-1.013-.7-1.303zm6.09 6.393-3.014 2.023-2.826-2.055-.018-4.042 5.857 4.074zm-7.902-4.07v3.957l-2.897 2.024-2.887-1.937zm-6.577 5.993 1.87 1.253-1.87 1.308v-2.56zm6.625 8.433-5.831-3.909 2.913-2.037 2.92 1.958v3.99zm-1.105-7.213 1.888-1.32 2.2 1.445-1.95 1.31zm3.167 7.213v-3.99l2.79-1.87 3.003 1.975zm6.625-5.805-1.98-1.3 1.98-1.329v2.63z" fill="#71717a"/></svg>